<?xml version="1.0" encoding="utf-8" ?>
<svg baseProfile="full" height="308" version="1.1" width="265" xmlns="http://www.w3.org/2000/svg" xmlns:ev="http://www.w3.org/2001/xml-events" xmlns:xlink="http://www.w3.org/1999/xlink"><defs /><path d="M 129,26 L 129,30 L 130,31 L 130,32 L 131,33 L 131,34 L 132,35 L 132,36 L 133,37 L 133,38 L 135,40 L 135,41 L 136,42 L 136,43 L 137,44 L 137,46 L 138,47 L 138,48 L 139,49 L 139,51 L 140,52 L 140,53 L 141,54 L 141,55 L 142,56 L 142,58 L 143,59 L 143,60 L 144,61 L 144,62 L 145,63 L 145,65 L 146,66 L 146,68 L 147,69 L 147,71 L 148,72 L 148,73 L 149,74 L 149,77 L 150,78 L 150,79 L 151,80 L 151,83 L 152,84 L 152,87 L 153,88 L 153,91 L 154,92 L 154,94 L 155,95 L 155,98 L 156,99 L 156,103 L 157,104 L 157,108 L 158,109 L 158,112 L 159,113 L 159,118 L 160,119 L 160,128 L 161,129 L 161,164 L 160,165 L 160,173 L 159,174 L 159,179 L 158,180 L 158,183 L 157,184 L 157,187 L 156,188 L 156,191 L 155,192 L 155,195 L 154,196 L 154,198 L 153,199 L 153,201 L 152,202 L 152,204 L 151,205 L 151,207 L 150,208 L 150,210 L 149,211 L 149,212 L 148,213 L 148,215 L 147,216 L 147,217 L 146,218 L 146,219 L 145,220 L 145,221 L 144,222 L 144,223 L 143,224 L 143,225 L 142,226 L 142,227 L 141,228 L 141,229 L 140,230 L 140,231 L 138,233 L 138,234 L 136,236 L 136,237 L 134,239 L 134,240 L 132,242 L 132,243 L 130,245 L 130,246 L 124,252 L 123,251 L 123,241 L 122,240 L 122,224 L 121,223 L 121,152 L 120,151 L 120,149 L 119,148 L 117,148 L 114,151 L 114,152 L 112,154 L 112,155 L 111,156 L 111,157 L 110,158 L 110,159 L 109,160 L 109,161 L 108,162 L 108,164 L 107,165 L 107,167 L 106,168 L 106,171 L 105,172 L 105,177 L 104,178 L 104,212 L 105,213 L 105,214 L 106,214 L 107,215 L 109,215 L 110,216 L 110,217 L 111,218 L 111,220 L 110,221 L 110,233 L 109,234 L 109,244 L 108,245 L 108,257 L 107,258 L 107,270 L 106,271 L 100,271 L 99,270 L 94,270 L 92,268 L 92,267 L 91,266 L 91,249 L 90,248 L 90,235 L 89,234 L 89,223 L 88,222 L 88,209 L 87,208 L 88,207 L 88,204 L 89,203 L 89,202 L 91,200 L 92,200 L 97,195 L 97,194 L 98,193 L 98,191 L 99,190 L 99,177 L 98,176 L 98,162 L 97,161 L 97,149 L 96,148 L 96,147 L 95,147 L 94,146 L 92,146 L 90,148 L 90,162 L 91,163 L 91,179 L 89,181 L 87,179 L 87,156 L 86,155 L 86,148 L 84,146 L 81,146 L 79,148 L 79,177 L 78,178 L 78,179 L 76,181 L 74,179 L 74,168 L 75,167 L 75,148 L 73,146 L 70,146 L 69,147 L 69,148 L 68,149 L 68,158 L 67,159 L 67,176 L 66,177 L 66,189 L 67,190 L 67,192 L 68,193 L 68,194 L 69,195 L 69,196 L 72,199 L 73,199 L 77,203 L 77,204 L 78,205 L 78,212 L 77,213 L 77,225 L 76,226 L 76,241 L 75,242 L 75,261 L 73,263 L 72,262 L 71,262 L 69,260 L 68,260 L 66,258 L 65,258 L 62,255 L 61,255 L 48,242 L 48,241 L 46,239 L 46,238 L 44,236 L 44,235 L 42,233 L 42,232 L 41,231 L 41,230 L 40,229 L 40,228 L 39,227 L 39,225 L 38,224 L 38,223 L 37,222 L 37,221 L 36,220 L 36,217 L 35,216 L 35,213 L 34,212 L 34,208 L 33,207 L 33,185 L 34,184 L 34,180 L 35,179 L 35,176 L 36,175 L 36,173 L 37,172 L 37,170 L 38,169 L 38,168 L 39,167 L 39,166 L 40,165 L 40,163 L 42,161 L 42,160 L 43,159 L 43,158 L 44,157 L 44,156 L 47,153 L 47,152 L 50,149 L 50,148 L 59,139 L 60,139 L 63,136 L 64,136 L 66,134 L 67,134 L 69,132 L 70,132 L 71,131 L 72,131 L 73,130 L 74,130 L 75,129 L 76,129 L 77,128 L 78,128 L 79,127 L 80,127 L 81,126 L 83,126 L 84,125 L 86,125 L 87,124 L 90,124 L 91,123 L 95,123 L 96,122 L 103,122 L 104,121 L 112,121 L 113,122 L 119,122 L 120,123 L 124,123 L 125,124 L 127,124 L 128,125 L 131,125 L 132,126 L 137,126 L 138,125 L 138,122 L 139,121 L 139,118 L 140,117 L 140,114 L 141,113 L 141,109 L 142,108 L 142,104 L 143,103 L 143,102 L 142,101 L 142,100 L 141,100 L 140,99 L 139,99 L 138,98 L 135,98 L 134,97 L 132,97 L 131,96 L 126,96 L 125,95 L 119,95 L 118,94 L 96,94 L 95,95 L 90,95 L 89,96 L 85,96 L 84,97 L 81,97 L 80,98 L 77,98 L 76,99 L 75,99 L 74,100 L 71,100 L 70,101 L 69,101 L 68,102 L 66,102 L 65,103 L 64,103 L 63,104 L 62,104 L 61,105 L 60,105 L 59,106 L 58,106 L 57,107 L 56,107 L 55,108 L 54,108 L 52,110 L 51,110 L 49,112 L 48,112 L 44,116 L 43,116 L 37,122 L 36,122 L 35,123 L 35,124 L 29,130 L 29,131 L 26,134 L 26,135 L 23,138 L 23,139 L 21,141 L 21,142 L 20,143 L 20,144 L 18,146 L 18,147 L 17,148 L 17,149 L 16,150 L 16,151 L 15,152 L 15,153 L 14,154 L 14,155 L 13,156 L 13,157 L 12,158 L 12,160 L 11,161 L 11,162 L 10,163 L 10,165 L 9,166 L 9,169 L 8,170 L 8,172 L 7,173 L 7,177 L 6,178 L 6,183 L 5,184 L 5,206 L 6,207 L 6,212 L 7,213 L 7,216 L 8,217 L 8,221 L 9,222 L 9,225 L 10,226 L 10,228 L 11,229 L 11,230 L 12,231 L 12,233 L 13,234 L 13,235 L 14,236 L 14,238 L 15,239 L 15,240 L 16,241 L 16,242 L 17,243 L 17,244 L 18,245 L 18,246 L 20,248 L 20,249 L 21,250 L 21,251 L 22,252 L 22,253 L 24,255 L 24,256 L 27,259 L 27,260 L 31,264 L 31,265 L 41,275 L 42,275 L 45,278 L 46,278 L 49,281 L 50,281 L 52,283 L 53,283 L 54,284 L 55,284 L 57,286 L 58,286 L 59,287 L 60,287 L 61,288 L 63,288 L 64,289 L 65,289 L 66,290 L 67,290 L 68,291 L 70,291 L 71,292 L 73,292 L 74,293 L 75,293 L 76,294 L 79,294 L 80,295 L 83,295 L 84,296 L 88,296 L 89,297 L 94,297 L 95,298 L 102,298 L 103,299 L 112,299 L 113,298 L 121,298 L 122,297 L 127,297 L 128,296 L 131,296 L 132,295 L 135,295 L 136,294 L 139,294 L 140,293 L 141,293 L 142,292 L 144,292 L 145,291 L 146,291 L 147,290 L 149,290 L 150,289 L 151,289 L 152,288 L 153,288 L 154,287 L 155,287 L 156,286 L 157,286 L 158,285 L 159,285 L 160,284 L 161,284 L 163,282 L 164,282 L 166,280 L 167,280 L 169,278 L 170,278 L 176,272 L 177,272 L 184,265 L 184,264 L 190,258 L 190,257 L 192,255 L 192,254 L 194,252 L 194,251 L 196,249 L 196,248 L 197,247 L 197,246 L 198,245 L 198,244 L 199,243 L 199,242 L 200,241 L 200,240 L 201,239 L 201,238 L 202,237 L 202,236 L 203,235 L 203,234 L 204,233 L 204,231 L 205,230 L 205,228 L 206,227 L 206,225 L 207,224 L 207,221 L 208,220 L 208,216 L 209,215 L 209,209 L 210,208 L 210,185 L 209,184 L 209,178 L 208,177 L 208,173 L 207,172 L 207,169 L 206,168 L 206,165 L 205,164 L 205,162 L 204,161 L 204,160 L 203,159 L 201,159 L 200,160 L 197,160 L 196,161 L 195,161 L 194,162 L 192,162 L 191,163 L 190,163 L 189,164 L 186,164 L 185,165 L 184,165 L 183,166 L 181,166 L 180,167 L 179,167 L 179,168 L 178,169 L 178,171 L 179,172 L 179,175 L 180,176 L 180,180 L 181,181 L 181,185 L 182,186 L 182,191 L 183,192 L 183,201 L 182,202 L 182,209 L 181,210 L 181,213 L 180,214 L 180,217 L 179,218 L 179,220 L 178,221 L 178,223 L 177,224 L 177,225 L 176,226 L 176,227 L 175,228 L 175,230 L 174,231 L 174,232 L 172,234 L 172,235 L 171,236 L 171,237 L 168,240 L 168,241 L 165,244 L 165,245 L 157,253 L 156,253 L 153,256 L 152,256 L 149,259 L 148,259 L 147,260 L 146,260 L 144,262 L 142,262 L 141,263 L 140,263 L 139,264 L 138,264 L 137,265 L 136,265 L 135,266 L 132,266 L 131,267 L 130,267 L 129,268 L 127,268 L 126,269 L 124,267 L 124,258 L 138,244 L 138,243 L 143,238 L 143,237 L 147,233 L 147,232 L 149,230 L 149,229 L 152,226 L 152,225 L 154,223 L 154,222 L 156,220 L 156,219 L 157,218 L 157,217 L 158,216 L 158,215 L 159,214 L 159,213 L 160,212 L 160,211 L 161,210 L 161,209 L 162,208 L 162,207 L 163,206 L 163,205 L 164,204 L 164,203 L 165,202 L 165,200 L 166,199 L 166,198 L 167,197 L 167,195 L 168,194 L 168,192 L 169,191 L 169,188 L 170,187 L 170,185 L 171,184 L 171,181 L 172,180 L 172,176 L 173,175 L 173,168 L 174,167 L 174,156 L 175,155 L 175,142 L 174,141 L 174,127 L 173,126 L 173,122 L 172,121 L 172,118 L 174,116 L 175,116 L 176,115 L 178,115 L 179,114 L 180,114 L 181,113 L 182,113 L 183,112 L 184,112 L 185,111 L 186,111 L 187,110 L 188,110 L 189,109 L 190,109 L 191,108 L 192,108 L 193,107 L 194,107 L 196,105 L 197,105 L 198,104 L 199,104 L 201,102 L 202,102 L 203,101 L 204,101 L 206,99 L 207,99 L 208,100 L 206,102 L 206,103 L 204,105 L 203,105 L 195,113 L 194,113 L 191,116 L 190,116 L 188,118 L 187,118 L 185,120 L 184,120 L 182,122 L 181,122 L 180,123 L 179,123 L 177,125 L 177,126 L 178,127 L 178,128 L 179,128 L 181,130 L 182,130 L 183,131 L 184,131 L 185,132 L 186,132 L 187,133 L 188,133 L 189,134 L 190,134 L 191,135 L 193,135 L 194,136 L 197,136 L 198,137 L 211,137 L 212,136 L 215,136 L 216,135 L 218,135 L 219,134 L 220,134 L 221,133 L 222,133 L 223,132 L 224,132 L 226,130 L 227,130 L 236,121 L 236,120 L 239,117 L 239,116 L 240,115 L 240,114 L 242,112 L 242,111 L 243,110 L 243,109 L 244,108 L 244,107 L 245,106 L 245,105 L 246,104 L 246,102 L 247,101 L 247,100 L 248,99 L 248,97 L 249,96 L 249,93 L 250,92 L 250,88 L 251,87 L 251,83 L 252,82 L 252,75 L 253,74 L 253,65 L 252,64 L 252,56 L 251,55 L 251,52 L 250,51 L 250,47 L 249,46 L 249,43 L 248,42 L 248,39 L 247,38 L 247,36 L 246,35 L 246,33 L 245,32 L 245,30 L 244,29 L 244,28 L 243,27 L 241,27 L 231,37 L 230,37 L 226,41 L 225,41 L 223,43 L 222,43 L 221,44 L 220,44 L 219,45 L 218,45 L 217,46 L 216,46 L 215,47 L 214,47 L 213,48 L 212,48 L 211,49 L 210,49 L 209,50 L 208,50 L 207,51 L 205,51 L 204,52 L 203,52 L 202,53 L 200,53 L 199,54 L 197,54 L 196,55 L 195,55 L 194,56 L 191,56 L 190,57 L 189,57 L 188,58 L 186,58 L 185,59 L 183,59 L 182,60 L 180,60 L 179,61 L 178,61 L 177,62 L 176,62 L 172,66 L 171,66 L 171,67 L 168,70 L 168,71 L 167,72 L 167,74 L 166,75 L 166,76 L 165,77 L 165,80 L 164,81 L 164,83 L 163,84 L 162,83 L 162,82 L 161,81 L 161,80 L 160,79 L 160,78 L 159,77 L 159,76 L 158,75 L 158,73 L 157,72 L 157,71 L 156,70 L 156,68 L 155,67 L 155,66 L 154,65 L 154,64 L 153,63 L 153,62 L 152,61 L 152,60 L 150,58 L 150,57 L 149,56 L 149,55 L 148,54 L 148,53 L 147,52 L 147,51 L 146,50 L 146,49 L 144,47 L 144,46 L 143,45 L 143,44 L 141,42 L 141,41 L 139,39 L 139,38 L 138,37 L 138,36 L 136,34 L 136,33 L 135,32 L 135,31 L 132,28 L 132,27 L 131,26 Z" fill="black" /></svg>